<svg width="17" height="6" viewBox="0 0 17 6" fill="none" xmlns="http://www.w3.org/2000/svg">
<rect width="17" height="6" fill="#E5E5E5"/>
<g id="Dashboard_Data_Health" clip-path="url(#clip0)">
<rect width="1440" height="900" transform="translate(-281 -499)" fill="#F4F8FF"/>
<g id="Group 18571">
<g id="Group 18494">
<g id="Group 18490">
<g id="Group 18487">
<g id="Group 18478">
<path id="Rectangle 1000" d="M-15.5 -26.5H372.5V55.5H-15.5V-26.5Z" fill="white" stroke="#DDE2EE"/>
<g id="Group 18477">
<g id="atom/logo/aws_s3">
<g id="Group">
<path id="Vector" d="M4.39837 4.06812C4.38984 4.24709 4.41541 4.41755 4.46655 4.588C4.51768 4.73288 4.58586 4.87776 4.65405 5.0056C4.67961 5.04822 4.69666 5.09083 4.69666 5.14196C4.68814 5.21015 4.65405 5.27833 4.58586 5.32094L4.21939 5.56809C4.17678 5.59366 4.11712 5.61923 4.06599 5.61923C3.99781 5.61071 3.93815 5.58514 3.88701 5.534C3.81031 5.44878 3.73361 5.35503 3.67395 5.26128C3.61429 5.16753 3.55463 5.04822 3.49497 4.92038C3.04328 5.4573 2.46374 5.73002 1.78193 5.73002C1.28762 5.73002 0.904107 5.59366 0.614339 5.31242C0.324571 5.03117 0.179688 4.65618 0.179688 4.19596C0.179688 3.70165 0.358662 3.30109 0.708088 2.99427C1.05751 2.68746 1.53478 2.54258 2.13988 2.54258C2.34442 2.54258 2.55749 2.55962 2.76203 2.58519C2.9751 2.61076 3.19668 2.66189 3.43532 2.71303V2.2869C3.43532 1.84372 3.34157 1.53691 3.16259 1.34941C2.9751 1.15339 2.65976 1.06817 2.20806 1.06817C1.995 1.06817 1.78193 1.09374 1.57739 1.14487C1.36433 1.19601 1.15126 1.26419 0.94672 1.34089C0.87854 1.36646 0.810359 1.39203 0.742178 1.41759C0.71661 1.42612 0.673997 1.43464 0.64843 1.43464C0.563204 1.43464 0.529113 1.37498 0.529113 1.25567V0.965897C0.520591 0.897717 0.537636 0.829535 0.571726 0.761355C0.614339 0.710219 0.673997 0.667607 0.733656 0.642039C0.963765 0.522723 1.21092 0.437497 1.4666 0.377838C1.76489 0.301135 2.0717 0.267045 2.37851 0.267045C3.07737 0.267045 3.5802 0.420451 3.90406 0.735787C4.22792 1.05112 4.38984 1.52839 4.38984 2.16758V4.0596H4.39837V4.06812ZM2.02909 4.95447C2.23363 4.95447 2.43817 4.92038 2.63419 4.8522C2.84726 4.77549 3.03475 4.64765 3.18816 4.4772C3.28191 4.37493 3.35009 4.24709 3.38418 4.10221C3.42679 3.94028 3.44384 3.76131 3.44384 3.59085V3.3437C3.26486 3.30109 3.08589 3.267 2.90692 3.24143C2.72794 3.21586 2.54044 3.20734 2.36147 3.20734C1.96943 3.20734 1.68819 3.28404 1.49217 3.43745C1.29615 3.59085 1.2024 3.82096 1.2024 4.11073C1.2024 4.38346 1.27058 4.588 1.41546 4.73288C1.56035 4.87776 1.76489 4.95447 2.02909 4.95447ZM6.71651 5.58514C6.63981 5.59366 6.5631 5.57662 6.49492 5.52548C6.43527 5.4573 6.39265 5.38912 6.37561 5.29537L5.00347 0.786923C4.9779 0.71022 4.96086 0.633516 4.95234 0.556813C4.94381 0.488632 4.99495 0.420451 5.06313 0.411929H5.66823C5.77903 0.411929 5.85573 0.428975 5.89834 0.471587C5.94096 0.5142 5.98357 0.590903 6.01766 0.701697L6.98923 4.56243L7.90115 0.701697C7.92672 0.582381 7.96933 0.505678 8.01194 0.471587C8.08012 0.428975 8.16535 0.403406 8.24205 0.411929H8.7108C8.82159 0.411929 8.89829 0.428975 8.94091 0.471587C9.00056 0.539768 9.04318 0.607948 9.0517 0.701697L9.97214 4.61356L10.9778 0.701697C10.9948 0.616471 11.0375 0.539768 11.0971 0.471587C11.1653 0.428975 11.242 0.403406 11.3272 0.411929H11.8727C11.9409 0.403406 12.009 0.454542 12.0176 0.522723V0.556813C12.0176 0.582381 12.009 0.624994 12.009 0.650562C12.0005 0.701697 11.9835 0.752832 11.9664 0.795445L10.5602 5.30389C10.5261 5.42321 10.4835 5.49991 10.4409 5.534C10.3727 5.57662 10.296 5.60218 10.2193 5.59366H9.71646C9.60567 5.59366 9.52896 5.57662 9.48635 5.534C9.42669 5.46582 9.38408 5.38912 9.37556 5.30389L8.47216 1.53691L7.57729 5.29537C7.56877 5.3806 7.52616 5.46582 7.4665 5.52548C7.38127 5.56809 7.30457 5.58514 7.21934 5.58514H6.71651ZM14.2164 5.73855C13.9096 5.73855 13.6113 5.70446 13.3215 5.63627C13.0317 5.56809 12.8016 5.49139 12.6482 5.40616C12.5715 5.37207 12.5119 5.31242 12.4693 5.24424C12.4437 5.1931 12.4352 5.14196 12.4352 5.08231V4.78402C12.4352 4.6647 12.4778 4.60504 12.5715 4.60504C12.6056 4.60504 12.6397 4.61356 12.6738 4.62209C12.7079 4.63061 12.759 4.65618 12.8187 4.68175C13.0232 4.77549 13.2363 4.83515 13.4579 4.88629C13.688 4.9289 13.9181 4.95447 14.1567 4.95447C14.5232 4.95447 14.813 4.88629 15.009 4.75845C15.205 4.63913 15.3158 4.43459 15.3158 4.20448C15.3243 4.05107 15.2647 3.90619 15.1624 3.7954C15.0601 3.6846 14.8556 3.58233 14.5743 3.48858L13.7306 3.22438C13.3045 3.08802 12.9891 2.892 12.7931 2.6278C12.6056 2.38065 12.5033 2.09088 12.5033 1.78407C12.4948 1.55396 12.546 1.33237 12.6568 1.13635C12.759 0.948852 12.9039 0.786923 13.0744 0.659084C13.2533 0.522722 13.4579 0.420452 13.6795 0.352271C13.9181 0.28409 14.1652 0.25 14.4124 0.25C14.5402 0.25 14.6766 0.258522 14.8044 0.275568C14.9408 0.292613 15.0601 0.31818 15.188 0.343748C15.3073 0.369316 15.4181 0.403407 15.5203 0.437497C15.6056 0.463065 15.6908 0.505678 15.7675 0.539768C15.8357 0.573858 15.8953 0.624994 15.9465 0.684652C15.9891 0.74431 16.0061 0.803968 15.9976 0.880671V1.15339C15.9976 1.27271 15.955 1.34089 15.8612 1.34089C15.7845 1.33237 15.7078 1.3068 15.6397 1.27271C15.2902 1.1193 14.9067 1.0426 14.5232 1.0426C14.1908 1.0426 13.9266 1.09374 13.7476 1.20453C13.5687 1.31532 13.4749 1.48577 13.4749 1.72441C13.4664 1.87781 13.5346 2.03122 13.6539 2.14201C13.7732 2.25281 13.9863 2.3636 14.2931 2.46587L15.1198 2.73007C15.5374 2.86643 15.8442 3.05393 16.0232 3.29256C16.2021 3.52267 16.2959 3.82096 16.2959 4.11073C16.3044 4.34084 16.2533 4.57947 16.1425 4.78402C16.0402 4.98004 15.8953 5.15901 15.7164 5.29537C15.5203 5.44878 15.2988 5.55957 15.0686 5.61923C14.7874 5.69593 14.5062 5.73855 14.2164 5.73855Z" fill="#252F3E"/>
</g>
</g>
</g>
</g>
</g>
</g>
</g>
</g>
</g>
<defs>
<clipPath id="clip0">
<rect width="1440" height="900" fill="white" transform="translate(-281 -499)"/>
</clipPath>
</defs>
</svg>
