<svg width="40" height="40" viewBox="0 0 40 40" fill="none" xmlns="http://www.w3.org/2000/svg">
<rect width="40" height="40" fill="white"/>
<path d="M6.16925 18.3638C6.15951 18.5683 6.18873 18.7632 6.24717 18.958C6.30561 19.1235 6.38353 19.2891 6.46145 19.4352C6.49067 19.4839 6.51015 19.5326 6.51015 19.5911C6.50041 19.669 6.46145 19.7469 6.38353 19.7956L5.96471 20.0781C5.91601 20.1073 5.84783 20.1365 5.78939 20.1365C5.71146 20.1268 5.64328 20.0975 5.58484 20.0391C5.49718 19.9417 5.40952 19.8346 5.34134 19.7274C5.27316 19.6203 5.20498 19.4839 5.1368 19.3378C4.62057 19.9514 3.95825 20.2631 3.17904 20.2631C2.61411 20.2631 2.17581 20.1073 1.84465 19.7859C1.51348 19.4644 1.3479 19.0359 1.3479 18.5099C1.3479 17.945 1.55244 17.4872 1.95179 17.1366C2.35113 16.7859 2.89658 16.6203 3.58812 16.6203C3.82189 16.6203 4.06539 16.6398 4.29915 16.669C4.54265 16.6983 4.7959 16.7567 5.06862 16.8151V16.3281C5.06862 15.8216 4.96148 15.471 4.75693 15.2567C4.54265 15.0327 4.18227 14.9353 3.66604 14.9353C3.42254 14.9353 3.17904 14.9645 2.94528 15.023C2.70177 15.0814 2.45827 15.1593 2.22451 15.247C2.14659 15.2762 2.06867 15.3054 1.99075 15.3346C1.96153 15.3444 1.91283 15.3541 1.88361 15.3541C1.7862 15.3541 1.74724 15.2859 1.74724 15.1496V14.8184C1.7375 14.7405 1.75698 14.6626 1.79594 14.5846C1.84465 14.5262 1.91283 14.4775 1.98101 14.4483C2.24399 14.3119 2.52645 14.2145 2.81866 14.1463C3.15956 14.0587 3.5102 14.0197 3.86085 14.0197C4.65953 14.0197 5.2342 14.195 5.60432 14.5554C5.97445 14.9158 6.15951 15.4613 6.15951 16.1918V18.3541H6.16925V18.3638ZM3.4615 19.3768C3.69526 19.3768 3.92903 19.3378 4.15305 19.2599C4.39655 19.1722 4.61083 19.0261 4.78616 18.8313C4.8933 18.7145 4.97122 18.5684 5.01018 18.4028C5.05888 18.2177 5.07836 18.0132 5.07836 17.8184V17.5359C4.87382 17.4872 4.66927 17.4482 4.46473 17.419C4.26019 17.3898 4.04591 17.3801 3.84137 17.3801C3.39332 17.3801 3.0719 17.4677 2.84788 17.643C2.62385 17.8184 2.51671 18.0813 2.51671 18.4125C2.51671 18.7242 2.59463 18.958 2.76021 19.1235C2.9258 19.2891 3.15956 19.3768 3.4615 19.3768ZM8.81856 20.0975C8.7309 20.1073 8.64323 20.0878 8.56531 20.0294C8.49713 19.9514 8.44843 19.8735 8.42895 19.7664L6.8608 14.6139C6.83158 14.5262 6.8121 14.4385 6.80236 14.3509C6.79262 14.273 6.85106 14.195 6.92898 14.1853H7.62052C7.74714 14.1853 7.83481 14.2048 7.88351 14.2535C7.93221 14.3022 7.98091 14.3898 8.01987 14.5165L9.13024 18.9287L10.1724 14.5165C10.2016 14.3801 10.2503 14.2924 10.2991 14.2535C10.377 14.2048 10.4744 14.1756 10.562 14.1853H11.0977C11.2244 14.1853 11.312 14.2048 11.3607 14.2535C11.4289 14.3314 11.4776 14.4093 11.4873 14.5165L12.5393 18.9872L13.6886 14.5165C13.7081 14.4191 13.7568 14.3314 13.825 14.2535C13.9029 14.2048 13.9905 14.1756 14.0879 14.1853H14.7113C14.7892 14.1756 14.8672 14.234 14.8769 14.3119V14.3509C14.8769 14.3801 14.8672 14.4288 14.8672 14.458C14.8574 14.5165 14.8379 14.5749 14.8185 14.6236L13.2113 19.7761C13.1724 19.9125 13.1237 20.0001 13.075 20.0391C12.9971 20.0878 12.9094 20.117 12.8217 20.1073H12.2471C12.1204 20.1073 12.0328 20.0878 11.9841 20.0391C11.9159 19.9612 11.8672 19.8735 11.8575 19.7761L10.825 15.471L9.8023 19.7664C9.79256 19.8638 9.74386 19.9612 9.67568 20.0294C9.57828 20.0781 9.49062 20.0975 9.39322 20.0975H8.81856ZM17.3898 20.2729C17.0392 20.2729 16.6983 20.2339 16.3671 20.156C16.036 20.0781 15.773 19.9904 15.5977 19.893C15.51 19.854 15.4418 19.7859 15.3931 19.7079C15.3639 19.6495 15.3542 19.5911 15.3542 19.5229V19.182C15.3542 19.0456 15.4029 18.9774 15.51 18.9774C15.549 18.9774 15.5879 18.9872 15.6269 18.9969C15.6658 19.0067 15.7243 19.0359 15.7925 19.0651C16.0262 19.1722 16.2697 19.2404 16.523 19.2989C16.786 19.3476 17.0489 19.3768 17.3217 19.3768C17.7405 19.3768 18.0716 19.2989 18.2957 19.1528C18.5197 19.0164 18.6463 18.7826 18.6463 18.5196C18.6561 18.3443 18.5879 18.1787 18.471 18.0521C18.3541 17.9255 18.1203 17.8086 17.7989 17.7015L16.8347 17.3995C16.3477 17.2437 15.9873 17.0197 15.7632 16.7177C15.549 16.4353 15.4321 16.1041 15.4321 15.7535C15.4223 15.4905 15.4808 15.2372 15.6074 15.0132C15.7243 14.7989 15.8899 14.6139 16.0847 14.4678C16.2892 14.3119 16.523 14.195 16.7762 14.1171C17.0489 14.0392 17.3314 14.0002 17.6139 14.0002C17.76 14.0002 17.9158 14.01 18.0619 14.0295C18.2178 14.0489 18.3541 14.0782 18.5002 14.1074C18.6366 14.1366 18.7632 14.1756 18.8801 14.2145C18.9775 14.2437 19.0749 14.2924 19.1625 14.3314C19.2405 14.3704 19.3086 14.4288 19.3671 14.497C19.4158 14.5652 19.4353 14.6334 19.4255 14.721V15.0327C19.4255 15.1691 19.3768 15.247 19.2697 15.247C19.182 15.2372 19.0944 15.208 19.0164 15.1691C18.6171 14.9937 18.1788 14.9061 17.7405 14.9061C17.3606 14.9061 17.0587 14.9645 16.8541 15.0911C16.6496 15.2178 16.5425 15.4126 16.5425 15.6853C16.5327 15.8606 16.6106 16.0359 16.747 16.1625C16.8834 16.2892 17.1269 16.4158 17.4775 16.5327L18.4223 16.8346C18.8996 16.9905 19.2502 17.2047 19.4547 17.4775C19.6593 17.7404 19.7664 18.0813 19.7664 18.4125C19.7762 18.6755 19.7177 18.9482 19.5911 19.182C19.4742 19.406 19.3086 19.6105 19.1041 19.7664C18.8801 19.9417 18.6268 20.0683 18.3639 20.1365C18.0424 20.2242 17.721 20.2729 17.3898 20.2729Z" fill="#252F3E"/>
<path d="M18.656 23.5162C16.4645 25.133 13.2698 25.9999 10.5328 25.9999C6.6952 25.9999 3.22772 24.5779 0.617378 22.2208C0.412836 22.0357 0.597898 21.7825 0.8414 21.9286C3.66603 23.5649 7.16272 24.5681 10.7666 24.5681C13.3672 24.5584 15.9386 24.0324 18.3346 23.0194C18.7047 22.8441 19.0164 23.2532 18.656 23.5162Z" fill="#FF9900"/>
<path d="M19.5716 22.474C19.2891 22.1136 17.721 22.2986 17.0002 22.3863C16.7859 22.4155 16.7567 22.2305 16.9515 22.0844C18.208 21.2078 20.2631 21.461 20.5066 21.7532C20.7501 22.0454 20.4384 24.1103 19.2696 25.1038C19.0943 25.2596 18.919 25.1817 18.9969 24.9772C19.2502 24.3148 19.8443 22.8246 19.5716 22.474Z" fill="#FF9900"/>
<path d="M31.2502 21.5C31.3184 21.6363 31.4158 21.7435 31.5327 21.8311C31.6593 21.9188 31.7957 21.987 31.9515 22.0162C32.1074 22.0551 32.2827 22.0746 32.4483 22.0746C32.5749 22.0746 32.6918 22.0649 32.8184 22.0454C32.945 22.0259 33.0716 21.9967 33.1885 21.9285C33.3054 21.8798 33.4028 21.7922 33.471 21.7045C33.5489 21.5974 33.5879 21.4707 33.5879 21.3344C33.5976 21.1883 33.5392 21.0519 33.432 20.9448C33.3151 20.8376 33.1788 20.7597 33.0327 20.7013C32.8573 20.6234 32.6625 20.5747 32.4677 20.526C32.2632 20.4773 32.0489 20.4188 31.8346 20.3604C31.6106 20.3117 31.3963 20.2435 31.1918 20.1558C30.9872 20.0779 30.8022 19.9805 30.6269 19.8441C30.4613 19.7175 30.3249 19.5617 30.2275 19.3669C30.1204 19.1526 30.0717 18.9188 30.0717 18.6753C30.0619 18.4026 30.1301 18.1299 30.2762 17.8864C30.4028 17.6624 30.5782 17.4773 30.7827 17.3215C30.997 17.1656 31.2405 17.0585 31.4937 16.9903C31.7567 16.9124 32.0197 16.8832 32.2924 16.8832C32.5944 16.8832 32.8866 16.9124 33.1788 16.9806C33.4515 17.039 33.7047 17.1559 33.9288 17.3117C34.1528 17.4676 34.3281 17.6624 34.4547 17.8961C34.5911 18.1591 34.6593 18.4611 34.6495 18.763H33.3931C33.3833 18.6072 33.3444 18.4611 33.2762 18.3247C33.2177 18.2078 33.1301 18.1201 33.0229 18.052C32.906 17.9838 32.7892 17.9351 32.6625 17.9156C32.5164 17.8864 32.3703 17.8766 32.2242 17.8766C32.1171 17.8766 32.01 17.8864 31.9126 17.9059C31.8152 17.9253 31.708 17.9643 31.6301 18.0227C31.5522 18.0812 31.4743 18.1494 31.4256 18.2273C31.3671 18.3247 31.3379 18.4318 31.3476 18.539C31.3379 18.6364 31.3671 18.7338 31.4158 18.8214C31.484 18.9188 31.5717 18.9773 31.6788 19.026C31.8541 19.1039 32.0294 19.1623 32.2145 19.2013C32.4385 19.2597 32.7405 19.3377 33.1106 19.4351C33.2177 19.4545 33.3736 19.4935 33.5684 19.5519C33.7729 19.6104 33.9677 19.7078 34.1528 19.8247C34.3573 19.961 34.5229 20.1266 34.6495 20.3214C34.7859 20.5357 34.8638 20.7987 34.8638 21.1396C34.8638 21.4026 34.8151 21.6558 34.708 21.8896C34.6008 22.1233 34.445 22.3279 34.2404 22.4935C34.0164 22.6688 33.7534 22.8051 33.471 22.8831C33.1203 22.9805 32.7697 23.0292 32.4093 23.0194C32.0879 23.0194 31.7762 22.9805 31.4645 22.9025C31.1723 22.8246 30.8996 22.698 30.6561 22.5227C30.4223 22.3474 30.2275 22.1331 30.0912 21.8701C29.9451 21.5779 29.8769 21.2565 29.8866 20.9253H31.1431C31.1333 21.1688 31.1723 21.3441 31.2502 21.5ZM37.3281 19.5032C37.4644 19.4935 37.6008 19.4643 37.7274 19.4058C37.8443 19.3571 37.9514 19.2792 38.0391 19.1818C38.1267 19.0649 38.1657 18.9286 38.156 18.7922C38.156 18.5487 38.078 18.3539 37.9125 18.2273C37.7566 18.0909 37.5521 18.0227 37.3475 18.0227C37.0456 18.0227 36.8313 18.1201 36.6755 18.315C36.5196 18.5292 36.4417 18.7922 36.4514 19.0552H35.3411C35.3508 18.7727 35.3995 18.5 35.4969 18.237C35.5943 18.0033 35.7209 17.7792 35.906 17.6039C36.0813 17.4286 36.2956 17.2825 36.5294 17.1948C36.7923 17.0974 37.0651 17.0487 37.3378 17.0487C37.5716 17.0487 37.8053 17.078 38.0293 17.1461C38.2534 17.2143 38.4676 17.3215 38.6527 17.4578C38.828 17.5942 38.9839 17.7695 39.1008 17.9546C39.2176 18.1591 39.2761 18.4026 39.2761 18.6461C39.2858 18.9091 39.2079 19.1623 39.0715 19.3864C38.9352 19.6104 38.7209 19.7565 38.4676 19.8247V19.8441C38.7598 19.9026 39.0326 20.0682 39.2176 20.3019C39.4027 20.5454 39.5001 20.8474 39.4904 21.1493C39.5001 21.4318 39.4417 21.7142 39.315 21.9577C39.1982 22.1915 39.0423 22.3961 38.8378 22.5519C38.6332 22.7077 38.3995 22.8344 38.1462 22.9123C37.8832 22.9902 37.6105 23.0389 37.3378 23.0389C37.0358 23.0486 36.7339 22.9902 36.4514 22.9025C36.1982 22.8149 35.9644 22.6785 35.7696 22.4935C35.5748 22.3084 35.4287 22.0844 35.3313 21.8311C35.2242 21.5487 35.1755 21.2467 35.1852 20.935H36.2956C36.3053 21.0811 36.3248 21.237 36.3735 21.3733C36.4125 21.5097 36.4807 21.6266 36.5683 21.7435C36.656 21.8409 36.7534 21.9285 36.88 21.987C37.0164 22.0551 37.1625 22.0844 37.3183 22.0844C37.5618 22.0941 37.8053 22.0064 37.9806 21.8409C38.156 21.685 38.2534 21.4513 38.2534 21.1785C38.2534 20.9545 38.2144 20.7889 38.1267 20.6818C38.0488 20.5649 37.9319 20.4773 37.7956 20.4286C37.6592 20.3799 37.5131 20.3506 37.3573 20.3409C37.2014 20.3312 37.0456 20.3312 36.9092 20.3312V19.513C37.0553 19.5227 37.2014 19.5227 37.3281 19.5032ZM25.562 14.1267H26.0295V25.8635H25.562V14.1267Z" fill="#252F3E"/>
</svg>