<svg width="33" height="33" viewBox="0 0 33 33" fill="none" xmlns="http://www.w3.org/2000/svg">
<rect width="33" height="33" fill="#E5E5E5"/>
<g clip-path="url(#clip0)">
<rect width="1440" height="900" transform="translate(-281 -571)" fill="#F4F8FF"/>
<path d="M-15.5 -15.5H372.5V66.5H-15.5V-15.5Z" fill="white" stroke="#DDE2EE"/>
<path d="M32.25 16.5C32.25 7.81388 25.1861 0.75 16.5 0.75C7.81388 0.75 0.75 7.81388 0.75 16.5C0.75 24.7058 7.05788 31.4625 15.0825 32.187C15.0983 32.187 15.1061 32.187 15.1219 32.187C15.2558 32.1949 15.3818 32.2106 15.5156 32.2185C15.5393 32.2185 15.5629 32.2185 15.5944 32.2264C15.7125 32.2343 15.8385 32.2421 15.9566 32.2421C15.9881 32.2421 16.0196 32.2421 16.0511 32.2421C16.2008 32.25 16.3504 32.25 16.5 32.25C16.6418 32.25 16.7835 32.25 16.9253 32.2421C16.9489 32.2421 16.9646 32.2421 16.9883 32.2421C17.1143 32.2421 17.2403 32.2343 17.3584 32.2264C17.3663 32.2264 17.3741 32.2264 17.382 32.2264C17.6576 32.2106 17.9411 32.187 18.2168 32.1555C26.0996 31.2971 32.25 24.6034 32.25 16.5ZM18.1616 30.6514L18.012 26.2965L21.8156 23.9655C22.2803 24.2805 22.8394 24.4695 23.4379 24.4695C25.0444 24.4695 26.3516 23.1386 26.3044 21.5164C26.265 20.0201 25.0129 18.7759 23.5166 18.7286C21.8944 18.6814 20.5635 19.9886 20.5635 21.5951C20.5635 21.7526 20.5793 21.9023 20.6029 22.0519L17.9175 23.7135L17.7285 18.2246L21.4691 15.933C22.5795 16.7678 24.1703 16.8859 25.4381 15.996C26.6666 15.1455 27.1785 13.5233 26.6824 12.1136C25.9973 10.1843 23.808 9.318 22.0125 10.1921C20.5556 10.9009 19.839 12.5231 20.2091 14.0351L17.6261 15.6337L17.4765 11.2552C18.6578 10.7985 19.4925 9.62512 19.4374 8.26275C19.3744 6.67988 18.0514 5.3805 16.4685 5.32538C14.736 5.27025 13.3106 6.672 13.3106 8.38875C13.3106 9.68812 14.1296 10.7985 15.2715 11.2474L15.0038 20.3351L12.2003 18.5475C12.3656 17.8545 12.342 17.0906 11.9483 16.2716C11.3891 15.1061 10.2551 14.2793 8.96363 14.1926C6.75863 14.0588 4.95525 15.933 5.20725 18.1538C5.38837 19.7524 6.67988 21.0596 8.27063 21.2644C9.318 21.3983 10.2866 21.0754 11.0111 20.469L14.925 22.9496L14.6888 30.6356C7.68 29.7458 2.24625 23.745 2.24625 16.5C2.24625 8.64075 8.64075 2.24625 16.5 2.24625C24.3593 2.24625 30.7537 8.64075 30.7537 16.5C30.7537 23.7923 25.2413 29.8245 18.1616 30.6514Z" fill="#323E48"/>
<path d="M16.3897 6.54688C15.366 6.54688 14.5312 7.38162 14.5312 8.40537C14.5312 9.42912 15.366 10.2639 16.3897 10.2639C17.4135 10.2639 18.2482 9.42912 18.2482 8.40537C18.2482 7.38162 17.4135 6.54688 16.3897 6.54688Z" fill="#009ADE"/>
<path d="M23.4002 19.9492C22.4709 19.9492 21.707 20.7052 21.707 21.6345C21.707 22.5637 22.463 23.3197 23.4002 23.3197C24.3294 23.3197 25.0933 22.5637 25.0933 21.6345C25.0854 20.7052 24.3294 19.9492 23.4002 19.9492Z" fill="#009ADE"/>
<path d="M24.4371 15.0537C25.4215 14.5733 25.831 13.3842 25.3506 12.3998C24.8702 11.4155 23.6811 11.006 22.6967 11.4863C21.7123 11.9667 21.3028 13.1558 21.7832 14.1481C22.2636 15.1246 23.4527 15.5341 24.4371 15.0537Z" fill="#009ADE"/>
<path d="M8.73575 15.6016C7.5545 15.6016 6.59375 16.5623 6.59375 17.7436C6.59375 18.9248 7.5545 19.8856 8.73575 19.8856C9.917 19.8856 10.8777 18.9248 10.8777 17.7436C10.8856 16.5623 9.917 15.6016 8.73575 15.6016Z" fill="#009ADE"/>
</g>
<defs>
<clipPath id="clip0">
<rect width="1440" height="900" fill="white" transform="translate(-281 -571)"/>
</clipPath>
</defs>
</svg>
