<svg width="20" height="20" viewBox="0 0 20 20" fill="#143F93" xmlns="http://www.w3.org/2000/svg">
<path d="M16.1 8.99905H15.1C15.1 6.19905 12.8 3.89905 10 3.89905C8 3.89905 6.2 5.09905 5.4 6.79905C5.3 6.79905 5.3 6.79905 5.2 6.79905C4 6.79905 3 7.79905 3 8.99905C3 9.09905 3 9.09905 3 9.09905C1.6 9.49905 0.5 10.799 0.5 12.399C0.5 14.299 2 15.799 3.9 15.799H15.9H16C17.9 15.799 19.4 14.299 19.4 12.399C19.5 10.599 18 8.99905 16.1 8.99905Z" stroke="#DDE2EE" stroke-miterlimit="10" stroke-linecap="round" stroke-linejoin="round"/>
<path d="M13.1001 8.89905H10.6001V6.39905H8.6001V8.89905H6.1001V10.899H8.6001V13.399H10.6001V10.899H13.1001V8.89905Z" stroke="#F4F8FF" stroke-miterlimit="10" stroke-linecap="round" stroke-linejoin="round"/>
</svg>