<svg width="40" height="40" viewBox="0 0 40 40" fill="none" xmlns="http://www.w3.org/2000/svg">
<path d="M8.34001 11.9397L11.34 17.6497C11.54 18.0397 12.05 18.3497 12.47 18.3497L18.58 18.3397C19 18.3397 19.17 18.0197 18.97 17.6297L15.97 11.9197C15.77 11.5297 15.26 11.2197 14.84 11.2197L8.73001 11.2297C8.72001 11.2297 8.71001 11.2297 8.70001 11.2297C8.30001 11.2497 8.14001 11.5597 8.34001 11.9397Z" fill="#87B027"/>
<path d="M19.9481 18.5965L21.7621 21.9845C21.8877 22.2146 22.1856 22.4022 22.4356 22.3992L26.0815 22.362C26.3315 22.359 26.4299 22.1676 26.3043 21.9375L24.4903 18.5495C24.3646 18.3194 24.0667 18.1318 23.8168 18.1348L20.1708 18.1719C20.1648 18.1717 20.1648 18.1717 20.1587 18.1715C19.9267 18.1813 19.8285 18.3666 19.9481 18.5965Z" fill="#87B027"/>
<path d="M19.9697 5.73988L16.3297 10.4199C16.0797 10.7399 16.0497 11.3099 16.2597 11.6999L19.3097 17.3799C19.5197 17.7699 19.8897 17.8199 20.1397 17.4999L23.7797 12.8199C24.0297 12.4999 24.0597 11.9299 23.8497 11.5399L20.7997 5.85988C20.6797 5.63988 20.4997 5.51988 20.3297 5.52988C20.1997 5.52988 20.0797 5.59988 19.9697 5.73988Z" fill="#008ECE"/>
<path d="M19.1174 18.6514L16.9493 21.4365C16.8022 21.6261 16.7836 21.9667 16.9032 22.1966L18.7172 25.5846C18.8428 25.8147 19.0611 25.847 19.2082 25.6574L21.3762 22.8724C21.5234 22.6827 21.5419 22.3421 21.4224 22.1122L19.6084 18.7242C19.5341 18.5874 19.4329 18.5228 19.3292 18.5251C19.2557 18.5346 19.1811 18.5745 19.1174 18.6514Z" fill="#008ECE"/>
<path d="M26.3399 25.0498H25.3799V32.3098H26.3399V25.0498Z" fill="#008ECE"/>
<path d="M8.09961 27.3398C6.71961 27.3398 5.59961 28.4598 5.59961 29.8398V34.4598H6.55961V31.8098V29.8398C6.55961 28.9798 7.24961 28.2898 8.10961 28.2898C8.96961 28.2898 9.65961 28.9798 9.65961 29.8398C9.65961 30.6998 8.96961 31.3898 8.10961 31.3898C7.62961 31.3898 7.19961 31.1698 6.90961 30.8198V32.0398C7.25961 32.2298 7.66961 32.3398 8.09961 32.3398C9.47961 32.3398 10.5996 31.2198 10.5996 29.8398C10.6096 28.4598 9.48961 27.3398 8.09961 27.3398Z" fill="#87B027"/>
<path d="M13.54 27.3398C12.16 27.3398 11.04 28.4598 11.04 29.8398V34.4598H12V31.8098V29.8398C12 28.9798 12.69 28.2898 13.55 28.2898C14.41 28.2898 15.1 28.9798 15.1 29.8398C15.1 30.6998 14.41 31.3898 13.55 31.3898C13.07 31.3898 12.64 31.1698 12.35 30.8198V32.0398C12.7 32.2298 13.11 32.3398 13.54 32.3398C14.92 32.3398 16.04 31.2198 16.04 29.8398C16.04 28.4598 14.92 27.3398 13.54 27.3398Z" fill="#87B027"/>
<path d="M2.5 25.0498C1.12 25.0498 0 26.1698 0 27.5498V32.2998H0.96V27.5498C0.96 26.6998 1.65 26.0098 2.5 26.0098C3.35 26.0098 4.04 26.6998 4.04 27.5498V28.0898H1.57V29.0498H4.05V32.2998H5.01V27.5498C5.01 26.1698 3.89 25.0498 2.5 25.0498Z" fill="#87B027"/>
<path d="M22.1602 27.5498C22.1602 26.6998 22.8502 26.0098 23.7002 26.0098H24.9102V25.0498H23.7002C22.3202 25.0498 21.2002 26.1698 21.2002 27.5498V32.2998H22.1602V29.1498H24.8202V28.1998H22.1602V27.5498Z" fill="#008ECE"/>
<path d="M30.3797 27.3799V30.4099C30.3697 31.0199 29.8697 31.5099 29.2597 31.5099C28.6497 31.5099 28.1497 31.0199 28.1397 30.4099V27.3799H27.1797V30.4099C27.1897 31.3799 27.8697 32.1999 28.7797 32.4099V34.4699H29.7397V32.4099C30.6497 32.1899 31.3297 31.3799 31.3397 30.4099V27.3799H30.3797Z" fill="#008ECE"/>
<path d="M35.7998 30.2296C35.6998 30.6196 35.4498 30.9696 35.0798 31.1796C34.3398 31.6096 33.3998 31.3496 32.9798 30.6196C32.5498 29.8796 32.8098 28.9396 33.5398 28.5196C34.1298 28.1796 34.8498 28.2696 35.3298 28.6996L33.1598 29.9496L33.6398 30.7896L34.6398 30.2096L36.6698 29.0396C36.6198 28.8896 36.5498 28.7396 36.4698 28.5996C35.7798 27.3996 34.2498 26.9896 33.0498 27.6796C31.8498 28.3696 31.4398 29.8996 32.1298 31.0996C32.8198 32.2996 34.3498 32.7096 35.5498 32.0196C36.2298 31.6196 36.6598 30.9496 36.7698 30.2296H35.7998Z" fill="#008ECE"/>
<path d="M39.7998 27.3398C39.2198 27.3398 38.6898 27.5398 38.2598 27.8698V27.3598H37.2998V32.2998H38.2598V29.8398C38.2598 28.9898 38.9498 28.2998 39.7998 28.2998H39.9998V27.3398H39.7998Z" fill="#008ECE"/>
<path d="M19.6999 30.0202L17.2999 28.9002C17.1799 28.8402 17.1399 28.7002 17.1899 28.5902C17.2299 28.5002 17.3199 28.4502 17.3999 28.4502H20.1399V27.4902H17.3999C16.9499 27.4902 16.5099 27.7502 16.3099 28.1802C16.0299 28.7802 16.2899 29.4902 16.8899 29.7802L19.2899 30.9002C19.4099 30.9602 19.4599 31.1002 19.4099 31.2202C19.3699 31.3102 19.2799 31.3602 19.1899 31.3602H16.3899V32.3202H19.1899C19.6399 32.3202 20.0799 32.0602 20.2799 31.6302C20.5599 31.0102 20.2999 30.3002 19.6999 30.0202Z" fill="#87B027"/>
</svg>