<svg width="35" height="35" viewBox="0 0 35 35" fill="none" xmlns="http://www.w3.org/2000/svg">
<rect width="35" height="35" fill="#E5E5E5"/>
<g id="Dashboard_Data_Health" clip-path="url(#clip0)">
<rect width="1440" height="900" transform="translate(-1041 -322)" fill="#F4F8FF"/>
<g id="Group 18571">
<g id="Group 18543">
<g id="Group 18474">
<g id="Group 18487">
<g id="Group 18478">
<path id="Rectangle 1000" d="M-14.5 0C-14.5 -8.00813 -8.00813 -14.5 9.53674e-07 -14.5H359C367.008 -14.5 373.5 -8.00813 373.5 0V67.5H-14.5V0Z" fill="white" stroke="#DDE2EE"/>
<g id="Group 18477">
<g id="atom/logo/javascript">
<g id="Group">
<path id="Vector" d="M0 0H35V35H0V0Z" fill="#F0DB4F"/>
<path id="Vector_2" d="M32.1378 26.6527C31.8841 25.0514 30.8428 23.7127 27.7541 22.4614C26.6866 21.9714 25.4878 21.6127 25.1291 20.8077C25.0066 20.3352 24.9891 20.0727 25.0678 19.7839C25.2953 18.8564 26.4066 18.5677 27.2816 18.8302C27.8503 19.0227 28.3841 19.4514 28.7078 20.1514C30.2216 19.1714 30.2128 19.1802 31.2716 18.5064C30.8866 17.9114 30.6766 17.6314 30.4228 17.3777C29.5128 16.3627 28.2791 15.8377 26.3016 15.8814C25.9603 15.9252 25.6103 15.9689 25.2691 16.0127C24.2803 16.2664 23.3353 16.7827 22.7841 17.4739C21.1303 19.3552 21.6028 22.6452 23.6153 24.0014C25.6016 25.4889 28.5153 25.8302 28.8916 27.2214C29.2503 28.9277 27.6403 29.4789 26.0303 29.2864C24.8491 29.0414 24.1841 28.4377 23.4753 27.3439C22.1628 28.1052 22.1628 28.1052 20.8153 28.8752C21.1391 29.5752 21.4716 29.8902 22.0053 30.4939C24.5428 33.0664 30.8866 32.9352 32.0241 29.0502C32.0766 28.9189 32.3828 28.0264 32.1378 26.6527ZM19.0303 16.0827H15.7491C15.7491 18.9089 15.7316 21.7177 15.7316 24.5439C15.7316 26.3464 15.8278 27.9914 15.5303 28.4989C15.0491 29.4964 13.8066 29.3739 13.2466 29.1814C12.6691 28.9014 12.3803 28.4989 12.0391 27.9302C11.9428 27.7639 11.8728 27.6414 11.8553 27.6327C10.9628 28.1752 10.0791 28.7177 9.19531 29.2602C9.64156 30.1702 10.2891 30.9577 11.1291 31.4652C12.3803 32.2177 14.0516 32.4452 15.8103 32.0427C16.9478 31.7102 17.9366 31.0189 18.4528 29.9777C19.1966 28.6039 19.0391 26.9414 19.0303 25.1039C19.0391 22.0939 19.0303 19.1014 19.0303 16.0827Z" fill="#323330"/>
</g>
</g>
</g>
</g>
</g>
</g>
</g>
</g>
</g>
<defs>
<clipPath id="clip0">
<rect width="1440" height="900" fill="white" transform="translate(-1041 -322)"/>
</clipPath>
</defs>
</svg>
