<svg width="267" height="23" viewBox="0 0 267 23" fill="none" xmlns="http://www.w3.org/2000/svg">
<rect width="267" height="23" fill="#E5E5E5"/>
<g clip-path="url(#clip0)">
<rect width="1440" height="900" transform="translate(-25 -19)" fill="#F4F8FF"/>
<g filter="url(#filter0_d)">
<rect x="-25" y="-19" width="1440" height="60" fill="white"/>
</g>
<path d="M60.1935 4.29688C57.6072 4.29617 55.2119 5.65907 53.8906 7.8824L53.794 8.04798L53.7321 8.15861C53.2564 9.02047 52.4079 10.8414 52.0633 11.4341C51.5841 12.2994 51.0563 13.1373 50.4841 13.9442C49.9802 14.5891 49.3453 15.1204 48.6223 15.503C46.4779 16.6531 43.8063 15.8469 42.6563 13.7025C42.3152 13.0662 42.1355 12.3565 42.1334 11.6349C42.1594 9.20863 44.12 7.24746 46.547 7.22139C47.2727 7.22068 47.9866 7.41095 48.6159 7.77316C48.9507 7.96554 49.2607 8.19666 49.5398 8.46308C49.8513 8.74631 50.1332 9.06067 50.3812 9.40102L50.9675 10.2699L52.6087 7.51172L52.3261 7.15303C51.7244 6.34403 50.9429 5.68585 50.0437 5.22919C48.9683 4.6295 47.7583 4.31379 46.5265 4.31238C42.4921 4.35325 39.2279 7.60826 39.1758 11.6426C39.1948 15.7018 42.4886 18.9828 46.5476 18.9863C47.771 18.9835 48.9746 18.6784 50.0507 18.097C50.5772 17.8017 51.0718 17.4529 51.5263 17.0555C52.2741 16.3121 52.9294 15.4804 53.4776 14.5799C53.6165 14.892 53.7779 15.1944 53.9603 15.4833C54.2698 16.0133 54.6474 16.5001 55.0844 16.9314V16.8899C57.9863 19.7178 62.6317 19.6579 65.4597 16.7559C68.2876 13.854 68.2277 9.20863 65.3257 6.38067C63.9544 5.04456 62.1151 4.29688 60.2005 4.29829L60.1935 4.29688ZM60.1998 16.0196C57.7665 16.0196 55.7933 14.0464 55.7933 11.613C55.7933 9.17976 57.7665 7.20659 60.1998 7.20659C62.6331 7.20659 64.6063 9.17976 64.6063 11.613C64.6063 14.0471 62.6339 16.0196 60.1998 16.0196Z" fill="#FF5003"/>
<path fill-rule="evenodd" clip-rule="evenodd" d="M0.312596 18.9802C0.105414 18.9802 0.00252804 18.8836 0.00252804 18.6765V5.19552C-0.0179083 5.04472 0.0877967 4.90589 0.238602 4.88546C0.263267 4.88193 0.287932 4.88193 0.312596 4.88546H2.92633C3.13351 4.88546 3.2364 4.982 3.2364 5.16804C3.2364 5.35408 3.2364 6.46469 3.2364 6.98828C3.2364 7.22929 3.31884 7.36036 3.36747 7.36036C3.49784 7.43154 3.66133 7.38362 3.7325 7.25325C3.73814 7.24338 3.74237 7.23281 3.7466 7.22224C4.31177 6.32587 5.99459 4.58103 8.08403 5.29136C8.76124 5.52462 9.37931 5.90093 9.89793 6.39493C10.4025 6.87412 10.795 7.45761 11.0494 8.10519C11.3179 8.80712 11.4511 9.5534 11.4427 10.3053V18.6772C11.468 18.8195 11.3721 18.9555 11.2298 18.9808C11.1995 18.9858 11.1692 18.9858 11.1389 18.9808H8.22215C8.01497 18.9808 7.91208 18.8843 7.91208 18.6772V10.3053C7.92758 9.11366 6.97342 8.13478 5.78177 8.11931C5.76345 8.11931 5.74442 8.11931 5.7261 8.11931C5.13979 8.10879 4.57391 8.33779 4.16097 8.75352C3.73462 9.15593 3.49925 9.71971 3.51264 10.3053V18.6772C3.51264 18.8843 3.40905 18.9808 3.20257 18.9808H0.312596V18.9802Z" fill="#143F93"/>
<path fill-rule="evenodd" clip-rule="evenodd" d="M25.5804 15.1043C25.6861 15.1423 25.7594 15.2403 25.7665 15.3523C25.7425 15.4777 25.6931 15.5976 25.622 15.704C25.5325 15.883 25.4219 16.0697 25.3049 16.2762C24.8391 17.0521 24.2112 17.7173 23.4635 18.2275C22.5164 18.787 21.4241 19.0534 20.3262 18.9928C19.5144 19.0013 18.7082 18.861 17.9472 18.5792C17.2699 18.336 16.6519 17.9533 16.1332 17.4551C15.6294 16.9717 15.2348 16.3861 14.9747 15.7378C14.7041 15.0338 14.5688 14.2854 14.5744 13.5313V9.7182C14.5822 9.05719 14.7182 8.40401 14.9747 7.7944C15.2488 7.14396 15.642 6.5499 16.1332 6.04252C16.6498 5.50413 17.2656 5.07073 17.9472 4.76701C18.6955 4.42664 19.5108 4.25751 20.3332 4.2702C21.1443 4.26104 21.947 4.43016 22.6848 4.76701C23.3648 5.07285 23.9808 5.50554 24.4987 6.04252C24.9899 6.5492 25.3831 7.14326 25.6573 7.7944C25.9138 8.40401 26.0498 9.05719 26.0575 9.7182V12.2143C26.0787 12.3616 25.9765 12.4976 25.8292 12.5187C25.8017 12.523 25.7742 12.5222 25.7468 12.518H18.4087C18.2579 12.4976 18.119 12.6033 18.0986 12.7541C18.0951 12.7788 18.0951 12.8034 18.0986 12.8281V13.5179C18.0937 14.1015 18.322 14.6624 18.7328 15.0768C19.1352 15.527 19.7152 15.7793 20.3191 15.7667C20.7498 15.7589 21.1662 15.6117 21.5051 15.346C21.9526 14.9809 22.2973 14.5053 22.5051 13.9669C22.5417 13.8632 22.6369 13.7928 22.7461 13.7879C22.93 13.8336 23.107 13.9056 23.2704 14.0014L25.5804 15.1043ZM22.1323 9.58787C22.36 9.58787 22.4699 9.49135 22.4699 9.31236C22.4522 9.16153 22.41 9.01491 22.3458 8.8782C22.2543 8.65693 22.1231 8.4533 21.9597 8.27853C21.7589 8.06851 21.5263 7.89165 21.2698 7.75423C20.9689 7.59356 20.6313 7.51534 20.2902 7.52662C19.9534 7.51745 19.62 7.59074 19.3177 7.74014C19.0584 7.87192 18.8245 8.04953 18.6279 8.26441C18.463 8.44133 18.3276 8.64353 18.2276 8.86417C18.1585 9.00439 18.117 9.15658 18.1036 9.31236C18.1036 9.49135 18.2142 9.58787 18.4411 9.58787H22.1323Z" fill="#143F93"/>
<path fill-rule="evenodd" clip-rule="evenodd" d="M34.6086 7.80828H36.6776C36.8199 7.83365 36.9559 7.73782 36.9813 7.59546C36.9862 7.56516 36.9862 7.53487 36.9813 7.50456V4.88448C37.0018 4.7372 36.8989 4.60119 36.7523 4.58076C36.7276 4.57723 36.703 4.57723 36.6782 4.58076H34.6093C34.4021 4.58076 34.3056 4.47717 34.3056 4.27069V2.24327C34.326 2.09246 34.2203 1.95364 34.0695 1.9332C34.0448 1.92967 34.0202 1.92967 33.9955 1.9332H31.1266C30.9688 1.90854 30.8201 2.01636 30.7955 2.17421C30.7905 2.2038 30.7905 2.2341 30.7955 2.2637V4.29817C30.792 4.45039 30.6714 4.57371 30.5199 4.58076H28.5341C28.3868 4.56032 28.2508 4.6632 28.2303 4.80979C28.2268 4.83445 28.2268 4.85911 28.2303 4.88378V7.50385C28.2057 7.65043 28.3051 7.78856 28.4516 7.81322C28.4791 7.81745 28.5066 7.81815 28.5341 7.81392H30.4924C30.6397 7.79348 30.7757 7.89637 30.7962 8.04293C30.7997 8.06757 30.7997 8.09231 30.7962 8.11696V13.5368C30.7729 14.5833 31.0555 15.6143 31.6101 16.5022C32.1893 17.3845 33.035 18.0582 34.0237 18.426C34.4923 18.61 34.9771 18.7488 35.4718 18.8397C35.8573 18.9221 36.2498 18.968 36.6444 18.9778C36.7918 18.9982 36.9278 18.8954 36.9482 18.7488C36.9517 18.7241 36.9517 18.6995 36.9482 18.6747V16.0279C36.9482 15.8207 36.8587 15.7179 36.6727 15.7179C36.0109 15.7249 35.3718 15.4783 34.887 15.0279C34.5092 14.6361 34.3006 14.1105 34.3076 13.5657V8.11839C34.3049 7.91187 34.4014 7.80828 34.6086 7.80828Z" fill="#143F93"/>
<path fill-rule="evenodd" clip-rule="evenodd" d="M70.6876 18.9802C70.4804 18.9802 70.3775 18.8836 70.3775 18.6765V5.19552C70.357 5.04472 70.4628 4.90589 70.6136 4.88546C70.6383 4.88193 70.6629 4.88193 70.6876 4.88546H73.3013C73.3823 4.88263 73.4627 4.89955 73.536 4.93338C73.5839 4.96791 73.6121 5.04401 73.6121 5.16804V6.99533C73.6121 7.19546 73.6945 7.29906 73.8531 7.29906C73.9355 7.30046 74.0152 7.26805 74.0737 7.20956C74.2322 7.04395 75.0737 4.92703 76.4112 4.88546C76.7015 4.87912 76.9911 4.91153 77.273 4.982C77.4231 5.00667 77.5303 5.14056 77.5211 5.29207V8.3949C77.5211 8.62247 77.4175 8.73238 77.2109 8.73238C77.0722 8.72329 76.9382 8.67535 76.8248 8.59431C76.6091 8.49348 76.3731 8.44626 76.1349 8.45616C75.5436 8.43853 74.9708 8.66267 74.5487 9.07705C74.1336 9.47937 73.9066 10.0369 73.9215 10.6147V18.6757C73.9215 18.8829 73.8179 18.9795 73.6113 18.9795H70.6876V18.9802Z" fill="#143F93"/>
<path fill-rule="evenodd" clip-rule="evenodd" d="M91.0404 15.105C91.1456 15.143 91.2194 15.241 91.2266 15.353C91.2023 15.4785 91.1528 15.5983 91.0818 15.7047C90.9927 15.8837 90.8821 16.0704 90.7643 16.2769C90.2912 17.0556 89.6534 17.7215 88.8958 18.2282C87.9487 18.7877 86.8564 19.0541 85.7585 18.9935C84.9453 19.0069 84.137 18.8715 83.3724 18.5933C82.6945 18.3487 82.0744 17.9661 81.5522 17.4692C81.0525 16.9837 80.66 16.3988 80.4007 15.7519C80.1265 15.0486 79.9913 14.2994 80.0004 13.5454V9.71827C80.0047 9.05654 80.1407 8.40255 80.4007 7.7944C80.6727 7.14396 81.0631 6.5499 81.5522 6.04252C82.0722 5.50554 82.6902 5.07215 83.3724 4.76701C84.1208 4.42664 84.9362 4.25751 85.7585 4.2702C86.5697 4.25892 87.373 4.42875 88.1101 4.76701C88.7902 5.07285 89.4061 5.50554 89.924 6.04252C90.4153 6.5492 90.8083 7.14326 91.0827 7.7944C91.339 8.40399 91.4748 9.05726 91.4829 9.71827V12.2142C91.5036 12.3616 91.402 12.4976 91.2545 12.5187C91.2266 12.5229 91.1996 12.5222 91.1717 12.518H83.8488C83.698 12.4976 83.5591 12.6033 83.5387 12.7541C83.5352 12.7787 83.5352 12.8034 83.5387 12.828V13.518C83.5338 14.1015 83.7621 14.6624 84.173 15.0768C84.5753 15.5271 85.1553 15.7793 85.7593 15.7666C86.1898 15.7589 86.6063 15.6117 86.9453 15.346C87.3928 14.981 87.7373 14.5052 87.9452 13.9668C87.9818 13.8633 88.077 13.7928 88.1863 13.7878C88.3701 13.8337 88.547 13.9056 88.7106 14.0014L91.0404 15.105ZM87.5922 9.58857C87.8197 9.58857 87.9297 9.49206 87.9297 9.31306C87.9121 9.16223 87.8698 9.01562 87.8057 8.8789C87.714 8.65907 87.5858 8.45616 87.4266 8.27923C87.2236 8.07137 86.9918 7.89447 86.7366 7.75493C86.4357 7.59427 86.0982 7.51605 85.7571 7.52732C85.4203 7.51816 85.0869 7.59145 84.7846 7.74084C84.5253 7.87262 84.2914 8.05023 84.0947 8.26511C83.9299 8.44204 83.7945 8.64423 83.6945 8.86487C83.6254 9.00509 83.5839 9.15728 83.5705 9.31306C83.5705 9.49206 83.6811 9.58857 83.908 9.58857H87.5922Z" fill="#143F93"/>
<g filter="url(#filter1_d)">
<rect x="107" width="160" height="23" rx="4" fill="#E7EDFF"/>
</g>
<path d="M117.91 15.09C117.23 15.09 116.633 14.9433 116.12 14.65C115.613 14.3567 115.223 13.9367 114.95 13.39C114.677 12.8433 114.54 12.2033 114.54 11.47C114.54 10.7367 114.677 10.1 114.95 9.56C115.223 9.01333 115.613 8.59333 116.12 8.3C116.633 8.00667 117.23 7.86 117.91 7.86C118.35 7.86 118.763 7.92667 119.15 8.06C119.537 8.18667 119.88 8.37333 120.18 8.62C120.267 8.68667 120.327 8.75667 120.36 8.83C120.393 8.90333 120.41 8.99333 120.41 9.1C120.41 9.24667 120.37 9.37 120.29 9.47C120.21 9.57 120.113 9.62 120 9.62C119.867 9.62 119.73 9.57333 119.59 9.48C119.303 9.26667 119.037 9.12 118.79 9.04C118.543 8.95333 118.27 8.91 117.97 8.91C117.277 8.91 116.75 9.12667 116.39 9.56C116.037 9.99333 115.86 10.63 115.86 11.47C115.86 12.3167 116.037 12.9567 116.39 13.39C116.75 13.8233 117.277 14.04 117.97 14.04C118.257 14.04 118.52 13.9967 118.76 13.91C119.007 13.8233 119.283 13.6767 119.59 13.47C119.657 13.43 119.723 13.3967 119.79 13.37C119.857 13.3433 119.927 13.33 120 13.33C120.113 13.33 120.21 13.38 120.29 13.48C120.37 13.58 120.41 13.7033 120.41 13.85C120.41 13.95 120.393 14.04 120.36 14.12C120.327 14.1933 120.267 14.2633 120.18 14.33C119.88 14.5767 119.537 14.7667 119.15 14.9C118.763 15.0267 118.35 15.09 117.91 15.09ZM124.739 15.09C123.772 15.09 123.039 14.84 122.539 14.34C122.039 13.84 121.789 13.11 121.789 12.15V8.54C121.789 8.34667 121.846 8.19333 121.959 8.08C122.072 7.96 122.226 7.9 122.419 7.9C122.612 7.9 122.766 7.96 122.879 8.08C122.992 8.19333 123.049 8.34667 123.049 8.54V12.22C123.049 12.8267 123.192 13.2867 123.479 13.6C123.766 13.9067 124.186 14.06 124.739 14.06C125.286 14.06 125.702 13.9033 125.989 13.59C126.276 13.2767 126.419 12.82 126.419 12.22V8.54C126.419 8.34667 126.476 8.19333 126.589 8.08C126.702 7.96 126.856 7.9 127.049 7.9C127.242 7.9 127.396 7.96 127.509 8.08C127.622 8.19333 127.679 8.34667 127.679 8.54V12.15C127.679 13.1033 127.429 13.8333 126.929 14.34C126.429 14.84 125.699 15.09 124.739 15.09ZM131.895 15.09C131.381 15.09 130.895 15.0233 130.435 14.89C129.981 14.75 129.611 14.5633 129.325 14.33C129.171 14.2167 129.095 14.0567 129.095 13.85C129.095 13.71 129.135 13.59 129.215 13.49C129.301 13.3833 129.401 13.33 129.515 13.33C129.635 13.33 129.771 13.3767 129.925 13.47C130.211 13.6767 130.511 13.8267 130.825 13.92C131.138 14.0133 131.485 14.06 131.865 14.06C132.351 14.06 132.725 13.9767 132.985 13.81C133.245 13.6367 133.375 13.3867 133.375 13.06C133.375 12.8067 133.251 12.6133 133.005 12.48C132.765 12.34 132.361 12.2067 131.795 12.08C131.208 11.9533 130.731 11.8067 130.365 11.64C129.998 11.4733 129.721 11.26 129.535 11C129.348 10.74 129.255 10.41 129.255 10.01C129.255 9.59667 129.371 9.22667 129.605 8.9C129.838 8.57333 130.161 8.32 130.575 8.14C130.995 7.95333 131.465 7.86 131.985 7.86C132.938 7.86 133.715 8.11333 134.315 8.62C134.401 8.69333 134.461 8.76667 134.495 8.84C134.535 8.90667 134.555 8.99333 134.555 9.1C134.555 9.24 134.511 9.36333 134.425 9.47C134.345 9.57 134.248 9.62 134.135 9.62C134.068 9.62 134.005 9.61 133.945 9.59C133.891 9.57 133.818 9.53333 133.725 9.48C133.451 9.28 133.185 9.13333 132.925 9.04C132.671 8.94 132.358 8.89 131.985 8.89C131.531 8.89 131.171 8.98333 130.905 9.17C130.645 9.35 130.515 9.60333 130.515 9.93C130.515 10.2033 130.631 10.4133 130.865 10.56C131.098 10.7067 131.495 10.8433 132.055 10.97C132.648 11.1033 133.128 11.2533 133.495 11.42C133.868 11.58 134.151 11.7867 134.345 12.04C134.545 12.2933 134.645 12.61 134.645 12.99C134.645 13.4033 134.528 13.77 134.295 14.09C134.068 14.4033 133.745 14.65 133.325 14.83C132.911 15.0033 132.435 15.09 131.895 15.09ZM138.287 15.05C138.087 15.05 137.927 14.9933 137.807 14.88C137.693 14.76 137.637 14.6033 137.637 14.41V9.01H135.817C135.417 9.01 135.217 8.83333 135.217 8.48C135.217 8.12667 135.417 7.95 135.817 7.95H140.747C141.147 7.95 141.347 8.12667 141.347 8.48C141.347 8.83333 141.147 9.01 140.747 9.01H138.927V14.41C138.927 14.6033 138.867 14.76 138.747 14.88C138.633 14.9933 138.48 15.05 138.287 15.05ZM145.121 15.09C144.435 15.09 143.838 14.9433 143.331 14.65C142.831 14.3567 142.445 13.9367 142.171 13.39C141.898 12.8433 141.761 12.2033 141.761 11.47C141.761 10.7367 141.895 10.1 142.161 9.56C142.435 9.01333 142.825 8.59333 143.331 8.3C143.838 8.00667 144.435 7.86 145.121 7.86C145.808 7.86 146.401 8.00667 146.901 8.3C147.408 8.59333 147.795 9.01333 148.061 9.56C148.335 10.1 148.471 10.7367 148.471 11.47C148.471 12.2033 148.335 12.8433 148.061 13.39C147.788 13.9367 147.398 14.3567 146.891 14.65C146.391 14.9433 145.801 15.09 145.121 15.09ZM145.121 14.06C145.768 14.06 146.271 13.8367 146.631 13.39C146.998 12.9433 147.181 12.3033 147.181 11.47C147.181 10.6367 146.998 10 146.631 9.56C146.271 9.11333 145.768 8.89 145.121 8.89C144.468 8.89 143.958 9.11333 143.591 9.56C143.231 10 143.051 10.6367 143.051 11.47C143.051 12.3033 143.231 12.9433 143.591 13.39C143.958 13.8367 144.468 14.06 145.121 14.06ZM156.326 7.9C156.513 7.9 156.663 7.96 156.776 8.08C156.889 8.19333 156.946 8.34667 156.946 8.54V14.46C156.946 14.6467 156.893 14.7933 156.786 14.9C156.679 15.0067 156.539 15.06 156.366 15.06C156.193 15.06 156.056 15.0067 155.956 14.9C155.856 14.7933 155.806 14.6467 155.806 14.46V10.34L154.106 13.56C154.026 13.7067 153.939 13.8167 153.846 13.89C153.753 13.9567 153.643 13.99 153.516 13.99C153.389 13.99 153.279 13.9567 153.186 13.89C153.093 13.8233 153.006 13.7133 152.926 13.56L151.216 10.39V14.46C151.216 14.64 151.163 14.7867 151.056 14.9C150.956 15.0067 150.819 15.06 150.646 15.06C150.473 15.06 150.336 15.0067 150.236 14.9C150.136 14.7933 150.086 14.6467 150.086 14.46V8.54C150.086 8.34667 150.139 8.19333 150.246 8.08C150.359 7.96 150.509 7.9 150.696 7.9C150.956 7.9 151.159 8.04333 151.306 8.33L153.526 12.56L155.736 8.33C155.883 8.04333 156.079 7.9 156.326 7.9ZM159.386 15C159.193 15 159.039 14.9467 158.926 14.84C158.819 14.7333 158.766 14.5833 158.766 14.39V8.56C158.766 8.36667 158.819 8.21667 158.926 8.11C159.039 8.00333 159.193 7.95 159.386 7.95H162.996C163.189 7.95 163.339 7.99333 163.446 8.08C163.553 8.16667 163.606 8.29 163.606 8.45C163.606 8.61667 163.553 8.74667 163.446 8.84C163.339 8.92667 163.189 8.97 162.996 8.97H160.026V10.91H162.796C162.989 10.91 163.139 10.9533 163.246 11.04C163.353 11.1267 163.406 11.2533 163.406 11.42C163.406 11.58 163.353 11.7033 163.246 11.79C163.139 11.8767 162.989 11.92 162.796 11.92H160.026V13.98H162.996C163.189 13.98 163.339 14.0267 163.446 14.12C163.553 14.2067 163.606 14.3333 163.606 14.5C163.606 14.66 163.553 14.7833 163.446 14.87C163.339 14.9567 163.189 15 162.996 15H159.386ZM170.586 14.19C170.666 14.31 170.706 14.4267 170.706 14.54C170.706 14.6933 170.643 14.82 170.516 14.92C170.396 15.02 170.253 15.07 170.086 15.07C169.98 15.07 169.876 15.0467 169.776 15C169.683 14.9467 169.603 14.87 169.536 14.77L168.206 12.75C168.073 12.5367 167.93 12.3867 167.776 12.3C167.63 12.2133 167.436 12.17 167.196 12.17H166.216V14.41C166.216 14.61 166.16 14.77 166.046 14.89C165.933 15.0033 165.78 15.06 165.586 15.06C165.393 15.06 165.236 15.0033 165.116 14.89C165.003 14.77 164.946 14.61 164.946 14.41V8.56C164.946 8.36667 165 8.21667 165.106 8.11C165.22 8.00333 165.373 7.95 165.566 7.95H168.066C168.866 7.95 169.473 8.13 169.886 8.49C170.306 8.84333 170.516 9.35667 170.516 10.03C170.516 10.5767 170.36 11.0267 170.046 11.38C169.74 11.7267 169.303 11.95 168.736 12.05C168.93 12.0967 169.1 12.18 169.246 12.3C169.393 12.42 169.536 12.5867 169.676 12.8L170.586 14.19ZM167.886 11.18C168.373 11.18 168.73 11.09 168.956 10.91C169.183 10.7233 169.296 10.44 169.296 10.06C169.296 9.67333 169.183 9.39333 168.956 9.22C168.73 9.04 168.373 8.95 167.886 8.95H166.206V11.18H167.886ZM175.818 15C175.624 15 175.471 14.9467 175.358 14.84C175.251 14.7333 175.198 14.5833 175.198 14.39V8.56C175.198 8.36667 175.251 8.21667 175.358 8.11C175.471 8.00333 175.624 7.95 175.818 7.95H177.798C178.951 7.95 179.844 8.26 180.478 8.88C181.118 9.49333 181.438 10.3567 181.438 11.47C181.438 12.59 181.118 13.46 180.478 14.08C179.844 14.6933 178.951 15 177.798 15H175.818ZM177.718 13.95C179.338 13.95 180.148 13.1233 180.148 11.47C180.148 9.82333 179.338 9 177.718 9H176.488V13.95H177.718ZM189.242 14.23C189.282 14.3167 189.302 14.4033 189.302 14.49C189.302 14.6433 189.239 14.7733 189.112 14.88C188.992 14.9867 188.852 15.04 188.692 15.04C188.586 15.04 188.486 15.0133 188.392 14.96C188.299 14.9 188.226 14.81 188.172 14.69L187.572 13.35H184.052L183.452 14.69C183.399 14.81 183.326 14.9 183.232 14.96C183.139 15.0133 183.036 15.04 182.922 15.04C182.769 15.04 182.629 14.9867 182.502 14.88C182.376 14.7733 182.312 14.6433 182.312 14.49C182.312 14.4033 182.332 14.3167 182.372 14.23L185.132 8.3C185.192 8.16667 185.282 8.06667 185.402 8C185.529 7.92667 185.662 7.89 185.802 7.89C185.942 7.89 186.072 7.92667 186.192 8C186.319 8.06667 186.412 8.16667 186.472 8.3L189.242 14.23ZM184.492 12.35H187.132L185.812 9.38L184.492 12.35ZM192.007 15.05C191.807 15.05 191.647 14.9933 191.527 14.88C191.414 14.76 191.357 14.6033 191.357 14.41V9.01H189.537C189.137 9.01 188.937 8.83333 188.937 8.48C188.937 8.12667 189.137 7.95 189.537 7.95H194.467C194.867 7.95 195.067 8.12667 195.067 8.48C195.067 8.83333 194.867 9.01 194.467 9.01H192.647V14.41C192.647 14.6033 192.587 14.76 192.467 14.88C192.354 14.9933 192.2 15.05 192.007 15.05ZM201.642 14.23C201.682 14.3167 201.702 14.4033 201.702 14.49C201.702 14.6433 201.639 14.7733 201.512 14.88C201.392 14.9867 201.252 15.04 201.092 15.04C200.986 15.04 200.886 15.0133 200.792 14.96C200.699 14.9 200.626 14.81 200.572 14.69L199.972 13.35H196.452L195.852 14.69C195.799 14.81 195.726 14.9 195.632 14.96C195.539 15.0133 195.436 15.04 195.322 15.04C195.169 15.04 195.029 14.9867 194.902 14.88C194.776 14.7733 194.712 14.6433 194.712 14.49C194.712 14.4033 194.732 14.3167 194.772 14.23L197.532 8.3C197.592 8.16667 197.682 8.06667 197.802 8C197.929 7.92667 198.062 7.89 198.202 7.89C198.342 7.89 198.472 7.92667 198.592 8C198.719 8.06667 198.812 8.16667 198.872 8.3L201.642 14.23ZM196.892 12.35H199.532L198.212 9.38L196.892 12.35ZM206.612 15.06C206.419 15.06 206.262 15.0033 206.142 14.89C206.029 14.77 205.972 14.61 205.972 14.41V8.56C205.972 8.36667 206.026 8.21667 206.132 8.11C206.246 8.00333 206.399 7.95 206.592 7.95H209.052C209.806 7.95 210.392 8.14 210.812 8.52C211.232 8.89333 211.442 9.42 211.442 10.1C211.442 10.78 211.232 11.31 210.812 11.69C210.392 12.07 209.806 12.26 209.052 12.26H207.262V14.41C207.262 14.61 207.202 14.77 207.082 14.89C206.969 15.0033 206.812 15.06 206.612 15.06ZM208.892 11.27C209.779 11.27 210.222 10.8833 210.222 10.11C210.222 9.33667 209.779 8.95 208.892 8.95H207.262V11.27H208.892ZM213.475 15C213.282 15 213.132 14.9467 213.025 14.84C212.919 14.7333 212.865 14.5867 212.865 14.4V8.54C212.865 8.34667 212.922 8.19333 213.035 8.08C213.155 7.96 213.312 7.9 213.505 7.9C213.705 7.9 213.862 7.96 213.975 8.08C214.095 8.19333 214.155 8.34667 214.155 8.54V13.94H216.965C217.365 13.94 217.565 14.1167 217.565 14.47C217.565 14.8233 217.365 15 216.965 15H213.475ZM225.035 14.23C225.075 14.3167 225.095 14.4033 225.095 14.49C225.095 14.6433 225.032 14.7733 224.905 14.88C224.785 14.9867 224.645 15.04 224.485 15.04C224.379 15.04 224.279 15.0133 224.185 14.96C224.092 14.9 224.019 14.81 223.965 14.69L223.365 13.35H219.845L219.245 14.69C219.192 14.81 219.119 14.9 219.025 14.96C218.932 15.0133 218.829 15.04 218.715 15.04C218.562 15.04 218.422 14.9867 218.295 14.88C218.169 14.7733 218.105 14.6433 218.105 14.49C218.105 14.4033 218.125 14.3167 218.165 14.23L220.925 8.3C220.985 8.16667 221.075 8.06667 221.195 8C221.322 7.92667 221.455 7.89 221.595 7.89C221.735 7.89 221.865 7.92667 221.985 8C222.112 8.06667 222.205 8.16667 222.265 8.3L225.035 14.23ZM220.285 12.35H222.925L221.605 9.38L220.285 12.35ZM227.8 15.05C227.6 15.05 227.44 14.9933 227.32 14.88C227.206 14.76 227.15 14.6033 227.15 14.41V9.01H225.33C224.93 9.01 224.73 8.83333 224.73 8.48C224.73 8.12667 224.93 7.95 225.33 7.95H230.26C230.66 7.95 230.86 8.12667 230.86 8.48C230.86 8.83333 230.66 9.01 230.26 9.01H228.44V14.41C228.44 14.6033 228.38 14.76 228.26 14.88C228.146 14.9933 227.993 15.05 227.8 15.05ZM232.554 15.06C232.361 15.06 232.204 15 232.084 14.88C231.971 14.76 231.914 14.6033 231.914 14.41V8.56C231.914 8.36667 231.968 8.21667 232.074 8.11C232.188 8.00333 232.341 7.95 232.534 7.95H236.044C236.451 7.95 236.654 8.12333 236.654 8.47C236.654 8.81 236.451 8.98 236.044 8.98H233.184V10.9H235.844C236.251 10.9 236.454 11.0733 236.454 11.42C236.454 11.76 236.251 11.93 235.844 11.93H233.184V14.41C233.184 14.6033 233.128 14.76 233.014 14.88C232.901 15 232.748 15.06 232.554 15.06ZM240.912 15.09C240.226 15.09 239.629 14.9433 239.122 14.65C238.622 14.3567 238.236 13.9367 237.962 13.39C237.689 12.8433 237.552 12.2033 237.552 11.47C237.552 10.7367 237.686 10.1 237.952 9.56C238.226 9.01333 238.616 8.59333 239.122 8.3C239.629 8.00667 240.226 7.86 240.912 7.86C241.599 7.86 242.192 8.00667 242.692 8.3C243.199 8.59333 243.586 9.01333 243.852 9.56C244.126 10.1 244.262 10.7367 244.262 11.47C244.262 12.2033 244.126 12.8433 243.852 13.39C243.579 13.9367 243.189 14.3567 242.682 14.65C242.182 14.9433 241.592 15.09 240.912 15.09ZM240.912 14.06C241.559 14.06 242.062 13.8367 242.422 13.39C242.789 12.9433 242.972 12.3033 242.972 11.47C242.972 10.6367 242.789 10 242.422 9.56C242.062 9.11333 241.559 8.89 240.912 8.89C240.259 8.89 239.749 9.11333 239.382 9.56C239.022 10 238.842 10.6367 238.842 11.47C238.842 12.3033 239.022 12.9433 239.382 13.39C239.749 13.8367 240.259 14.06 240.912 14.06ZM251.497 14.19C251.577 14.31 251.617 14.4267 251.617 14.54C251.617 14.6933 251.554 14.82 251.427 14.92C251.307 15.02 251.164 15.07 250.997 15.07C250.89 15.07 250.787 15.0467 250.687 15C250.594 14.9467 250.514 14.87 250.447 14.77L249.117 12.75C248.984 12.5367 248.84 12.3867 248.687 12.3C248.54 12.2133 248.347 12.17 248.107 12.17H247.127V14.41C247.127 14.61 247.07 14.77 246.957 14.89C246.844 15.0033 246.69 15.06 246.497 15.06C246.304 15.06 246.147 15.0033 246.027 14.89C245.914 14.77 245.857 14.61 245.857 14.41V8.56C245.857 8.36667 245.91 8.21667 246.017 8.11C246.13 8.00333 246.284 7.95 246.477 7.95H248.977C249.777 7.95 250.384 8.13 250.797 8.49C251.217 8.84333 251.427 9.35667 251.427 10.03C251.427 10.5767 251.27 11.0267 250.957 11.38C250.65 11.7267 250.214 11.95 249.647 12.05C249.84 12.0967 250.01 12.18 250.157 12.3C250.304 12.42 250.447 12.5867 250.587 12.8L251.497 14.19ZM248.797 11.18C249.284 11.18 249.64 11.09 249.867 10.91C250.094 10.7233 250.207 10.44 250.207 10.06C250.207 9.67333 250.094 9.39333 249.867 9.22C249.64 9.04 249.284 8.95 248.797 8.95H247.117V11.18H248.797ZM259.362 7.9C259.548 7.9 259.698 7.96 259.812 8.08C259.925 8.19333 259.982 8.34667 259.982 8.54V14.46C259.982 14.6467 259.928 14.7933 259.822 14.9C259.715 15.0067 259.575 15.06 259.402 15.06C259.228 15.06 259.092 15.0067 258.992 14.9C258.892 14.7933 258.842 14.6467 258.842 14.46V10.34L257.142 13.56C257.062 13.7067 256.975 13.8167 256.882 13.89C256.788 13.9567 256.678 13.99 256.552 13.99C256.425 13.99 256.315 13.9567 256.222 13.89C256.128 13.8233 256.042 13.7133 255.962 13.56L254.252 10.39V14.46C254.252 14.64 254.198 14.7867 254.092 14.9C253.992 15.0067 253.855 15.06 253.682 15.06C253.508 15.06 253.372 15.0067 253.272 14.9C253.172 14.7933 253.122 14.6467 253.122 14.46V8.54C253.122 8.34667 253.175 8.19333 253.282 8.08C253.395 7.96 253.545 7.9 253.732 7.9C253.992 7.9 254.195 8.04333 254.342 8.33L256.562 12.56L258.772 8.33C258.918 8.04333 259.115 7.9 259.362 7.9Z" fill="#143F93"/>
</g>
<defs>
<filter id="filter0_d" x="-35" y="-24" width="1460" height="80" filterUnits="userSpaceOnUse" color-interpolation-filters="sRGB">
<feFlood flood-opacity="0" result="BackgroundImageFix"/>
<feColorMatrix in="SourceAlpha" type="matrix" values="0 0 0 0 0 0 0 0 0 0 0 0 0 0 0 0 0 0 127 0" result="hardAlpha"/>
<feOffset dy="5"/>
<feGaussianBlur stdDeviation="5"/>
<feColorMatrix type="matrix" values="0 0 0 0 0 0 0 0 0 0 0 0 0 0 0 0 0 0 0.05 0"/>
<feBlend mode="normal" in2="BackgroundImageFix" result="effect1_dropShadow"/>
<feBlend mode="normal" in="SourceGraphic" in2="effect1_dropShadow" result="shape"/>
</filter>
<filter id="filter1_d" x="97" y="-5" width="180" height="43" filterUnits="userSpaceOnUse" color-interpolation-filters="sRGB">
<feFlood flood-opacity="0" result="BackgroundImageFix"/>
<feColorMatrix in="SourceAlpha" type="matrix" values="0 0 0 0 0 0 0 0 0 0 0 0 0 0 0 0 0 0 127 0" result="hardAlpha"/>
<feOffset dy="5"/>
<feGaussianBlur stdDeviation="5"/>
<feColorMatrix type="matrix" values="0 0 0 0 0 0 0 0 0 0 0 0 0 0 0 0 0 0 0.05 0"/>
<feBlend mode="normal" in2="BackgroundImageFix" result="effect1_dropShadow"/>
<feBlend mode="normal" in="SourceGraphic" in2="effect1_dropShadow" result="shape"/>
</filter>
<clipPath id="clip0">
<rect width="1440" height="900" fill="white" transform="translate(-25 -19)"/>
</clipPath>
</defs>
</svg>
