<svg width="29" height="33" viewBox="0 0 29 33" fill="none" xmlns="http://www.w3.org/2000/svg">
<rect width="29" height="33" fill="#E5E5E5"/>
<g clip-path="url(#clip0)">
<rect width="1440" height="900" transform="translate(-283 -654)" fill="#F4F8FF"/>
<path d="M-17.5 -15.5H370.5V66.5H-17.5V-15.5Z" fill="white" stroke="#DDE2EE"/>
<path d="M24.9113 6.88462C24.8877 6.72713 24.7538 6.6405 24.6357 6.63263C24.5176 6.62475 22.0999 6.44362 22.0999 6.44362C22.0999 6.44362 20.4147 4.77413 20.2336 4.593C20.0524 4.41188 19.6902 4.467 19.5484 4.50638C19.5248 4.51425 19.1783 4.61663 18.6113 4.79775C18.0522 3.18338 17.0599 1.695 15.3117 1.695C15.2644 1.695 15.2172 1.695 15.1621 1.70288C14.6659 1.0335 14.0517 0.75 13.5241 0.75C9.46056 0.75 7.52331 5.82937 6.90906 8.41237C5.33406 8.90063 4.20794 9.24713 4.06619 9.29438C3.18419 9.57 3.16056 9.6015 3.04244 10.4284C2.95581 11.0584 0.648438 28.8874 0.648438 28.8874L18.6192 32.25L28.3527 30.1474C28.3527 30.1474 24.9349 7.04213 24.9113 6.88462ZM17.6191 5.097L16.0992 5.5695C16.0992 5.45925 16.0992 5.35687 16.0992 5.23875C16.0992 4.23075 15.9574 3.4275 15.7369 2.78175C16.6347 2.892 17.2332 3.91575 17.6191 5.097ZM14.6187 2.97863C14.8707 3.60075 15.0282 4.50638 15.0282 5.71913C15.0282 5.78212 15.0282 5.83725 15.0282 5.89238C14.0359 6.1995 12.9649 6.53025 11.8861 6.861C12.4924 4.53788 13.6264 3.40388 14.6187 2.97863ZM13.4138 1.83675C13.5871 1.83675 13.7682 1.89975 13.9336 2.01C12.6342 2.62425 11.2324 4.16775 10.6497 7.24688L8.16906 8.01862C8.85419 5.67188 10.4922 1.83675 13.4138 1.83675Z" fill="#95BF46"/>
<path d="M24.6376 6.6265C24.5195 6.61863 22.1018 6.4375 22.1018 6.4375C22.1018 6.4375 20.4166 4.768 20.2355 4.58688C20.1646 4.516 20.0701 4.4845 19.9756 4.46875L18.6211 32.2517L28.3546 30.1491C28.3546 30.1491 24.9368 7.04387 24.9132 6.88637C24.8896 6.72887 24.7557 6.64225 24.6376 6.6265Z" fill="#5E8E3E"/>
<path d="M15.313 12.0038L14.116 15.5711C14.116 15.5711 13.0608 15.012 11.7772 15.012C9.88716 15.012 9.79266 16.2011 9.79266 16.5004C9.79266 18.1305 14.0452 18.7526 14.0452 22.572C14.0452 25.5802 12.1394 27.5096 9.57216 27.5096C6.48516 27.5096 4.91016 25.5881 4.91016 25.5881L5.73703 22.8634C5.73703 22.8634 7.35928 24.2572 8.72953 24.2572C9.62728 24.2572 9.98953 23.5564 9.98953 23.0366C9.98953 20.9104 6.50091 20.8159 6.50091 17.3194C6.50091 14.3741 8.61141 11.5312 12.8718 11.5312C14.5019 11.5391 15.313 12.0038 15.313 12.0038Z" fill="white"/>
</g>
<defs>
<clipPath id="clip0">
<rect width="1440" height="900" fill="white" transform="translate(-283 -654)"/>
</clipPath>
</defs>
</svg>
