<svg width="15" height="15" viewBox="0 0 15 15" fill="none" xmlns="http://www.w3.org/2000/svg">
<rect width="15" height="15" fill="#E5E5E5"/>
<rect width="1440" height="900" transform="translate(-492 -586)" fill="#F4F8FF"/>
<g filter="url(#filter0_d_1914:1)">
<rect x="-226.5" y="-25.5" width="554" height="490" rx="10.5" fill="white" stroke="#DDE2EE"/>
<path d="M7.49869 14.1653C11.1806 14.1653 14.1653 11.1806 14.1653 7.49869C14.1653 3.81679 11.1806 0.832031 7.49869 0.832031C3.81679 0.832031 0.832031 3.81679 0.832031 7.49869C0.832031 11.1806 3.81679 14.1653 7.49869 14.1653Z" stroke="#6F6F8D" stroke-width="1.5" stroke-linecap="round" stroke-linejoin="round"/>
<path d="M7.49587 10.2633V6.52344H6.60156" stroke="#6F6F8D" stroke-width="1.5" stroke-linecap="round" stroke-linejoin="round"/>
<path d="M7.49806 5.62894C7.85727 5.62894 8.14847 5.33774 8.14847 4.97853C8.14847 4.61932 7.85727 4.32812 7.49806 4.32812C7.13885 4.32812 6.84766 4.61932 6.84766 4.97853C6.84766 5.33774 7.13885 5.62894 7.49806 5.62894Z" fill="#6F6F8D"/>
<path d="M6.27734 10.2617H8.71636" stroke="#6F6F8D" stroke-width="1.5" stroke-linecap="round" stroke-linejoin="round"/>
</g>
<defs>
<filter id="filter0_d_1914:1" x="-239" y="-61" width="579" height="543" filterUnits="userSpaceOnUse" color-interpolation-filters="sRGB">
<feFlood flood-opacity="0" result="BackgroundImageFix"/>
<feColorMatrix in="SourceAlpha" type="matrix" values="0 0 0 0 0 0 0 0 0 0 0 0 0 0 0 0 0 0 127 0" result="hardAlpha"/>
<feOffset dy="5"/>
<feGaussianBlur stdDeviation="6"/>
<feColorMatrix type="matrix" values="0 0 0 0 0 0 0 0 0 0 0 0 0 0 0 0 0 0 0.07 0"/>
<feBlend mode="normal" in2="BackgroundImageFix" result="effect1_dropShadow_1914:1"/>
<feBlend mode="normal" in="SourceGraphic" in2="effect1_dropShadow_1914:1" result="shape"/>
</filter>
</defs>
</svg>
