<svg width="24" height="18" viewBox="0 0 24 18" fill="none" xmlns="http://www.w3.org/2000/svg">
                    <path d="M23.1378 11.6527C22.8841 10.0514 21.8428 8.71268 18.7541 7.46143C17.6866 6.97143 16.4878 6.61268 16.1291 5.80768C16.0066 5.33519 15.9891 5.07268 16.0678 4.78394C16.2953 3.85644 17.4066 3.56769 18.2816 3.83018C18.8503 4.02269 19.3841 4.45144 19.7078 5.15143C21.2216 4.17144 21.2128 4.18018 22.2716 3.50643C21.8866 2.91143 21.6766 2.63144 21.4228 2.37769C20.5128 1.36269 19.2791 0.837685 17.3016 0.881435C16.9603 0.925185 16.6103 0.968934 16.2691 1.01268C15.2803 1.26643 14.3353 1.78268 13.7841 2.47393C12.1303 4.35518 12.6028 7.64518 14.6153 9.00143C16.6016 10.4889 19.5153 10.8302 19.8916 12.2214C20.2503 13.9277 18.6403 14.4789 17.0303 14.2864C15.8491 14.0414 15.1841 13.4377 14.4753 12.3439C13.1628 13.1052 13.1628 13.1052 11.8153 13.8752C12.1391 14.5752 12.4716 14.8902 13.0053 15.4939C15.5428 18.0664 21.8866 17.9352 23.0241 14.0502C23.0766 13.9189 23.3828 13.0264 23.1378 11.6527ZM10.0303 1.08268H6.74906C6.74906 3.90893 6.73156 6.71768 6.73156 9.54393C6.73156 11.3464 6.82781 12.9914 6.53031 13.4989C6.04906 14.4964 4.80656 14.3739 4.24656 14.1814C3.66906 13.9014 3.38031 13.4989 3.03906 12.9302C2.94281 12.7639 2.87281 12.6414 2.85531 12.6327C1.96281 13.1752 1.07906 13.7177 0.195312 14.2602C0.641562 15.1702 1.28906 15.9577 2.12906 16.4652C3.38031 17.2177 5.05156 17.4452 6.81031 17.0427C7.94781 16.7102 8.93656 16.0189 9.45281 14.9777C10.1966 13.6039 10.0391 11.9414 10.0303 10.1039C10.0391 7.09393 10.0303 4.10143 10.0303 1.08268Z" fill="#323330"/>
                    </svg>